<?xml version="1.0" encoding="UTF-8"?>
<svg id="Layer_1" xmlns="http://www.w3.org/2000/svg" version="1.1" viewBox="0 0 497.2 94">
  <!-- Generator: Adobe Illustrator 29.3.0, SVG Export Plug-In . SVG Version: 2.1.0 Build 146)  -->
  <defs>
    <style>
      .st0 {
        fill: #9bff8b;
      }

      .st1 {
        fill: #fff;
      }
    </style>
  </defs>
  <path class="st1" d="M11.3,82.6c-6.4-6.5-9.6-14.5-9.6-24.1s3.2-17.7,9.6-24.1c6.4-6.5,14.5-9.8,24.3-9.8s22.4,6,28,15.3l-11.1,6.4c-3.3-5.9-9.5-9.3-16.9-9.3s-11.4,2-15.3,6c-3.8,4-5.8,9.1-5.8,15.4s2,11.3,5.8,15.3c3.9,4,9,6,15.3,6s13.9-3.5,16.9-9.2l11.1,6.4c-5.6,9.4-16.1,15.3-28,15.3s-17.9-3.3-24.3-9.8Z"/>
  <path class="st1" d="M104.6,44.5h12v46.5h-12v-5.5c-3.6,4.6-8.6,6.8-15.2,6.8s-11.5-2.3-16-7.1c-4.4-4.7-6.6-10.6-6.6-17.5s2.2-12.6,6.6-17.4c4.5-4.7,9.8-7.2,16-7.2s11.5,2.2,15.2,6.8v-5.5ZM91.7,80.9c3.7,0,6.8-1.2,9.2-3.6,2.5-2.5,3.7-5.7,3.7-9.5s-1.2-7-3.7-9.4c-2.4-2.5-5.5-3.7-9.2-3.7s-6.8,1.2-9.2,3.7c-2.4,2.4-3.6,5.6-3.6,9.4s1.2,7,3.6,9.5c2.4,2.4,5.5,3.6,9.2,3.6Z"/>
  <path class="st1" d="M125.5,91V23.1h12v67.9h-12Z"/>
  <path class="st1" d="M146.5,91V23.1h12v67.9h-12Z"/>
  <path class="st1" d="M174.7,82.6c-6.4-6.5-9.6-14.5-9.6-24.1s3.2-17.7,9.6-24.1c6.4-6.5,14.5-9.8,24.3-9.8s21.1,5.3,26.7,14.7l-9.8,7c-3.3-5.9-9.5-9.3-16.9-9.3s-11.4,2-15.3,6c-3.8,4-5.8,9.1-5.8,15.4s2,11.3,5.8,15.3c3.9,4,9,6,15.3,6s13.9-3.5,16.9-9.2l11.1,6.4c-5.6,9.4-16.1,15.3-28,15.3s-17.9-3.3-24.3-9.8Z"/>
  <path class="st1" d="M254.8,92.3c-6.9,0-12.7-2.3-17.5-7.1-4.7-4.7-7.1-10.6-7.1-17.5s2.3-12.6,7.1-17.4,10.6-7.2,17.5-7.2,12.7,2.4,17.5,7.2,7.2,10.5,7.2,17.4-2.4,12.7-7.2,17.5c-4.7,4.7-10.6,7.1-17.5,7.1ZM254.8,80.6c3.6,0,6.6-1.2,9-3.6,2.4-2.4,3.6-5.5,3.6-9.2s-1.2-6.8-3.6-9.2c-2.4-2.4-5.4-3.6-9-3.6s-6.6,1.2-9,3.6c-2.3,2.4-3.5,5.5-3.5,9.2s1.2,6.8,3.5,9.2c2.4,2.4,5.4,3.6,9,3.6Z"/>
  <path class="st1" d="M322.8,48.3c3.3,3.4,5,8.1,5,14.1v28.5h-12v-27.1c0-6.2-3.6-9.6-9.2-9.6s-10.2,3.8-10.2,11.5v25.1h-12v-46.5h12v5.2c2.9-4.4,7.5-6.5,13.9-6.5s9.3,1.7,12.6,5.1Z"/>
  <path class="st1" d="M365.9,44.5h13.2l-17.7,46.5h-13.7l-17.7-46.5h13.2l11.3,32.5,11.3-32.5Z"/>
  <path class="st1" d="M391.2,72.7c1.6,5.9,6,8.7,13.1,8.7s8.1-1.6,10.4-4.7l9.7,5.6c-4.6,6.6-11.3,9.9-20.3,9.9s-13.9-2.3-18.5-7c-4.6-4.6-7-10.5-7-17.6s2.3-12.8,6.9-17.5c4.6-4.7,10.5-7.1,17.7-7.1s12.5,2.3,16.8,7.1c4.5,4.7,6.7,10.5,6.7,17.5s-.2,3.2-.5,4.9h-35.1ZM416.2,63.4c-1.4-6.3-6-9.4-11.5-9.4s-10.8,3.4-12.2,9.4h23.7Z"/>
  <path class="st1" d="M445.1,52.5c2.2-6,7.8-8.9,14.1-8.9v13.4c-3.6-.5-7,.3-9.9,2.2-2.9,2-4.3,5.1-4.3,9.6v22.2h-12v-46.5h12v8Z"/>
  <path class="st1" d="M492.1,56.1h-10.5v19.3c0,5,3.6,5.1,10.5,4.7v10.9c-16.5,1.9-22.5-2.9-22.5-15.6v-19.3h-8.1v-11.5h8.1v-9.4l12-3.6v13h10.5v11.5Z"/>
  <polygon class="st0" points="248.4 34.4 232.4 33.1 234.1 17.2 251.9 2.5 250.2 18.4 266.2 19.7 248.4 34.4"/>
  <circle class="st0" cx="199.2" cy="58.4" r="10.6"/>
</svg>